<?xml version="1.0" standalone="no"?>
<!DOCTYPE svg PUBLIC "-//W3C//DTD SVG 20010904//EN"
 "http://www.w3.org/TR/2001/REC-SVG-20010904/DTD/svg10.dtd">
<svg version="1.0" xmlns="http://www.w3.org/2000/svg"
 width="3264.000000pt" height="3264.000000pt" viewBox="0 0 3264.000000 3264.000000"
 preserveAspectRatio="xMidYMid meet">

<g transform="translate(0.000000,3264.000000) scale(0.100000,-0.100000)"
fill="#000000" stroke="none">
<path d="M16566 24749 c-21 -5 -50 -18 -65 -28 -15 -11 -51 -23 -80 -27 -38
-5 -61 -15 -81 -34 -15 -15 -44 -30 -64 -34 -19 -4 -43 -17 -53 -29 -10 -12
-30 -28 -45 -36 -16 -8 -28 -19 -28 -24 0 -5 -26 -34 -57 -63 -32 -29 -61 -57
-65 -61 -57 -64 -78 -94 -78 -111 0 -12 -13 -36 -29 -54 -16 -19 -32 -51 -36
-72 -4 -20 -20 -52 -36 -69 -21 -23 -29 -42 -29 -69 0 -29 -6 -41 -29 -57 -21
-15 -31 -33 -36 -62 -5 -26 -17 -50 -35 -65 -18 -17 -30 -40 -34 -66 -4 -23
-17 -52 -30 -65 -14 -14 -26 -41 -30 -67 -5 -30 -16 -51 -36 -70 -24 -21 -30
-35 -30 -65 0 -32 -5 -44 -29 -60 -21 -15 -31 -33 -36 -62 -5 -26 -17 -50 -35
-65 -18 -17 -29 -38 -33 -66 -3 -23 -16 -51 -30 -67 -14 -14 -28 -45 -32 -68
-4 -28 -15 -50 -31 -62 -16 -12 -27 -35 -33 -66 -6 -32 -17 -55 -35 -69 -15
-13 -29 -38 -35 -64 -5 -24 -18 -50 -29 -58 -11 -7 -25 -35 -31 -61 -7 -26
-23 -59 -35 -73 -13 -14 -26 -44 -30 -69 -5 -30 -16 -52 -36 -71 -22 -21 -30
-37 -30 -63 0 -28 -6 -40 -29 -56 -19 -14 -32 -35 -40 -68 -7 -26 -21 -53 -31
-60 -10 -7 -23 -35 -30 -62 -6 -27 -22 -59 -36 -72 -14 -13 -24 -34 -24 -50 0
-38 -19 -77 -40 -84 -19 -6 -30 -33 -30 -73 0 -13 -13 -35 -29 -50 -19 -17
-34 -44 -40 -70 -5 -24 -18 -50 -29 -58 -12 -8 -25 -35 -31 -65 -8 -34 -20
-58 -36 -71 -16 -13 -25 -29 -25 -48 0 -38 -20 -80 -37 -80 -16 0 -29 -29 -38
-82 -4 -24 -12 -39 -25 -43 -18 -6 -40 -52 -40 -87 0 -10 -11 -28 -24 -39 -16
-14 -29 -41 -36 -72 -6 -30 -20 -59 -35 -73 -14 -13 -25 -34 -25 -48 0 -34
-20 -76 -37 -76 -16 0 -29 -29 -38 -82 -4 -24 -12 -39 -25 -43 -19 -6 -40 -52
-40 -87 0 -10 -11 -29 -25 -42 -14 -13 -29 -43 -35 -71 -6 -28 -21 -58 -35
-71 -14 -13 -25 -34 -25 -48 0 -37 -18 -76 -34 -76 -19 0 -32 -24 -41 -77 -4
-28 -13 -44 -25 -48 -19 -6 -40 -53 -40 -90 0 -13 -11 -30 -24 -39 -18 -11
-27 -29 -32 -62 -4 -29 -15 -54 -31 -69 -16 -14 -28 -41 -34 -71 -5 -27 -16
-52 -24 -56 -29 -17 -42 -38 -48 -75 -4 -23 -17 -48 -31 -60 -16 -14 -27 -37
-31 -67 -5 -31 -14 -50 -30 -60 -17 -11 -26 -29 -31 -63 -4 -34 -15 -56 -34
-74 -19 -17 -29 -40 -34 -72 -5 -33 -13 -48 -27 -52 -23 -8 -34 -27 -43 -79
-5 -23 -17 -47 -31 -58 -16 -12 -26 -34 -31 -64 -4 -26 -14 -50 -25 -57 -20
-15 -39 -57 -39 -90 0 -13 -13 -34 -29 -48 -19 -17 -32 -40 -36 -65 -5 -24
-19 -50 -36 -66 -20 -19 -29 -37 -29 -59 0 -21 -10 -43 -30 -65 -16 -18 -32
-51 -36 -71 -3 -21 -17 -50 -31 -64 -13 -14 -26 -43 -30 -65 -3 -24 -16 -49
-33 -65 -16 -15 -30 -42 -34 -65 -5 -24 -19 -49 -37 -66 -20 -19 -29 -36 -29
-59 0 -21 -10 -43 -30 -65 -17 -20 -33 -51 -36 -75 -4 -22 -14 -45 -24 -52
-24 -17 -40 -51 -40 -86 0 -21 -8 -35 -29 -50 -21 -15 -31 -33 -36 -63 -5 -27
-18 -52 -36 -69 -21 -20 -29 -36 -29 -62 0 -26 -7 -41 -24 -55 -16 -12 -29
-38 -37 -68 -6 -27 -20 -56 -30 -65 -22 -20 -39 -61 -39 -92 0 -12 -13 -33
-30 -47 -21 -17 -33 -37 -37 -65 -4 -25 -17 -50 -35 -67 -19 -18 -28 -36 -28
-58 0 -21 -10 -44 -29 -65 -16 -19 -32 -51 -36 -74 -4 -23 -15 -47 -24 -54
-25 -17 -41 -51 -41 -86 0 -21 -8 -35 -29 -50 -21 -15 -30 -31 -34 -62 -4 -28
-15 -51 -36 -71 -21 -21 -31 -40 -31 -60 0 -19 -11 -43 -30 -65 -21 -23 -30
-44 -30 -68 0 -31 -20 -65 -39 -65 -12 0 -31 -48 -31 -80 0 -20 -8 -35 -29
-49 -21 -15 -30 -31 -34 -63 -3 -24 -14 -48 -25 -57 -25 -20 -42 -53 -42 -82
0 -12 -13 -37 -30 -56 -21 -23 -30 -44 -30 -68 0 -31 -20 -65 -39 -65 -11 0
-31 -47 -31 -73 0 -12 -13 -34 -29 -49 -19 -18 -30 -41 -34 -68 -3 -28 -15
-49 -36 -69 -23 -22 -31 -38 -31 -63 0 -25 -8 -42 -30 -63 -23 -22 -30 -38
-30 -67 0 -27 -6 -43 -21 -56 -43 -35 -49 -44 -49 -72 0 -37 -9 -60 -24 -60
-15 0 -32 -34 -40 -79 -3 -19 -17 -44 -29 -55 -14 -13 -27 -39 -31 -64 -4 -29
-16 -51 -36 -69 -23 -20 -30 -35 -30 -64 0 -35 -28 -79 -51 -79 -4 0 -11 -20
-14 -43 -5 -29 -16 -53 -35 -70 -18 -17 -29 -40 -33 -67 -3 -26 -14 -50 -30
-64 -14 -13 -27 -39 -31 -65 -4 -30 -16 -53 -36 -71 -22 -21 -30 -37 -30 -63
0 -27 -7 -41 -29 -60 -19 -16 -32 -38 -37 -63 -4 -22 -18 -51 -34 -66 -17 -17
-29 -43 -32 -66 -3 -23 -16 -49 -30 -64 -16 -15 -28 -41 -32 -70 -5 -34 -14
-50 -36 -67 -24 -17 -30 -29 -30 -61 0 -31 -5 -43 -29 -59 -21 -15 -31 -33
-36 -64 -4 -25 -18 -54 -35 -72 -16 -18 -30 -47 -33 -70 -4 -23 -15 -46 -28
-56 -13 -9 -24 -34 -30 -65 -7 -36 -17 -55 -39 -72 -24 -19 -30 -31 -30 -62 0
-31 -6 -43 -29 -59 -21 -15 -31 -33 -36 -64 -4 -23 -18 -54 -32 -68 -13 -15
-29 -46 -34 -70 -6 -24 -19 -51 -30 -60 -13 -9 -25 -35 -30 -64 -6 -35 -18
-57 -39 -77 -22 -19 -30 -36 -30 -60 0 -25 -7 -39 -30 -58 -21 -17 -32 -37
-37 -65 -3 -22 -16 -51 -29 -65 -12 -14 -27 -45 -33 -69 -5 -26 -19 -52 -31
-61 -14 -10 -25 -35 -31 -64 -6 -33 -18 -57 -39 -76 -22 -20 -30 -37 -30 -62
0 -25 -7 -39 -30 -58 -21 -17 -32 -37 -37 -65 -3 -22 -16 -51 -29 -65 -12 -14
-27 -45 -33 -70 -6 -29 -19 -51 -35 -63 -18 -13 -26 -28 -26 -47 0 -16 -5 -40
-12 -54 l-11 -26 -716 -2 -716 -3 -55 -26 c-35 -17 -82 -29 -128 -34 -57 -6
-80 -13 -103 -33 -21 -17 -47 -27 -79 -30 -37 -3 -55 -11 -73 -32 -16 -18 -39
-29 -67 -34 -24 -4 -56 -18 -72 -31 -16 -14 -42 -28 -56 -31 -15 -4 -41 -22
-59 -40 -18 -19 -38 -34 -46 -34 -8 0 -21 -7 -28 -17 -8 -9 -33 -25 -56 -35
-23 -10 -52 -32 -63 -48 -12 -17 -27 -30 -34 -30 -6 0 -20 -13 -29 -30 -10
-16 -25 -30 -33 -30 -8 0 -23 -13 -32 -30 -9 -16 -23 -30 -30 -30 -7 0 -22
-16 -33 -35 -12 -19 -25 -35 -31 -35 -12 0 -38 -26 -38 -39 0 -5 -10 -18 -23
-28 -13 -10 -34 -37 -47 -60 -13 -24 -27 -43 -31 -43 -3 0 -12 -15 -19 -32 -7
-18 -28 -47 -46 -65 -26 -24 -34 -40 -34 -66 0 -25 -7 -38 -29 -54 -20 -15
-30 -34 -35 -62 -3 -23 -15 -50 -25 -60 -30 -30 -41 -56 -41 -99 0 -24 -6 -45
-16 -52 -27 -23 -44 -81 -44 -152 0 -67 -9 -98 -36 -126 -24 -24 -34 -86 -34
-214 0 -102 3 -130 16 -142 8 -9 16 -17 17 -18 1 -2 448 -5 992 -8 l990 -5 -2
-44 c-1 -25 -8 -48 -15 -53 -7 -4 -19 -11 -27 -16 -7 -5 -17 -30 -22 -55 -4
-26 -18 -56 -32 -69 -14 -14 -28 -43 -32 -68 -5 -27 -16 -51 -32 -64 -16 -14
-26 -36 -30 -63 -4 -29 -14 -50 -34 -67 -19 -17 -30 -39 -34 -70 -5 -32 -13
-47 -26 -51 -23 -8 -34 -28 -43 -77 -4 -21 -17 -49 -30 -61 -13 -13 -27 -43
-31 -67 -5 -27 -16 -51 -32 -64 -18 -15 -27 -35 -30 -68 -4 -35 -11 -49 -29
-59 -22 -11 -44 -61 -44 -97 0 -7 -13 -25 -30 -39 -22 -18 -30 -33 -30 -58 0
-23 -9 -42 -28 -62 -17 -16 -32 -45 -36 -68 -4 -22 -19 -52 -32 -66 -14 -14
-27 -43 -31 -65 -3 -25 -16 -49 -34 -66 -18 -17 -31 -41 -35 -68 -4 -22 -14
-46 -24 -53 -24 -17 -40 -51 -40 -86 0 -20 -8 -35 -26 -48 -18 -14 -29 -33
-35 -68 -6 -33 -17 -56 -34 -70 -17 -13 -28 -34 -31 -60 -4 -27 -16 -48 -35
-65 -38 -32 -50 -92 -24 -120 18 -20 34 -20 819 -20 l801 0 44 30 c34 23 55
30 93 30 56 0 105 18 132 49 11 12 31 21 46 21 15 0 44 13 65 30 21 17 43 30
49 30 7 0 29 16 49 35 20 19 44 35 52 35 36 0 265 245 265 284 0 5 16 24 35
43 19 19 35 42 35 53 0 10 12 32 26 49 14 17 32 52 40 78 8 26 23 56 33 67 10
12 24 38 31 59 6 21 20 46 30 55 9 9 23 35 30 57 7 22 21 51 31 64 11 13 26
46 33 72 8 27 26 64 40 81 13 18 29 52 35 75 7 23 18 46 26 50 8 5 21 26 28
48 8 22 26 57 40 78 14 21 28 50 32 66 3 16 14 37 25 48 10 11 25 44 34 72 8
29 27 66 41 82 14 17 25 39 25 50 0 25 27 79 39 79 5 0 17 22 26 49 9 27 25
59 36 72 10 12 24 39 29 59 6 21 19 49 30 63 12 14 25 40 31 57 l11 30 763 0
c601 0 764 -3 767 -12 3 -7 3 -29 1 -48 -4 -26 -12 -40 -33 -52 -23 -13 -30
-26 -35 -63 -5 -31 -17 -55 -36 -75 -21 -20 -29 -38 -29 -62 0 -25 -8 -42 -29
-62 -19 -18 -30 -41 -34 -69 -3 -23 -14 -47 -25 -56 -26 -21 -42 -54 -42 -88
0 -21 -8 -32 -30 -45 -25 -14 -30 -23 -30 -57 0 -32 -6 -46 -31 -69 -21 -20
-32 -41 -36 -69 -4 -28 -15 -51 -34 -69 -21 -20 -29 -37 -29 -63 0 -27 -8 -42
-35 -67 -29 -26 -35 -39 -35 -73 0 -22 -4 -41 -10 -41 -21 0 -50 -41 -50 -70
0 -19 -11 -42 -31 -65 -19 -21 -33 -50 -36 -74 -4 -26 -15 -49 -34 -67 -21
-20 -29 -37 -29 -63 0 -27 -8 -42 -35 -67 -27 -24 -35 -40 -35 -66 0 -25 -8
-40 -30 -60 -21 -18 -30 -35 -30 -57 0 -20 -11 -43 -31 -65 -17 -20 -33 -51
-36 -73 -3 -23 -17 -49 -34 -67 -21 -21 -29 -38 -29 -64 0 -28 -8 -43 -35 -68
-29 -26 -35 -39 -35 -72 0 -31 5 -44 20 -52 13 -7 275 -9 823 -8 l803 3 33 28
c25 21 43 27 79 27 63 0 106 13 138 43 14 14 42 27 61 30 18 3 47 17 64 31 17
14 37 26 44 26 7 0 24 13 37 29 14 15 41 34 61 40 20 7 37 17 37 21 0 5 16 20
36 34 32 21 60 51 147 157 16 19 35 51 44 71 8 21 23 40 32 43 19 6 41 45 41
74 0 9 11 27 24 39 14 11 30 40 36 64 7 24 20 52 31 63 10 12 24 36 30 55 7
19 20 44 30 55 10 11 25 40 33 63 9 24 24 55 35 70 10 15 27 53 36 85 9 31 24
61 34 66 9 5 25 34 34 64 10 30 23 57 31 60 7 3 19 26 26 50 7 25 20 54 29 64
9 10 23 34 30 53 8 19 24 46 37 60 12 14 27 43 33 66 7 28 19 44 36 52 14 6
25 16 25 22 0 9 74 84 261 264 14 13 42 28 63 31 36 7 58 22 74 50 4 8 30 19
57 24 29 5 55 17 64 30 12 15 35 23 91 31 44 6 89 20 110 33 l35 22 3495 5
3495 5 58 28 c52 25 71 28 203 34 136 6 148 8 176 31 27 23 106 39 205 41 12
1 34 12 50 25 19 16 50 27 96 34 37 6 84 21 103 33 20 12 57 26 82 31 25 4 55
17 66 27 26 25 69 41 106 41 18 0 42 12 64 31 19 16 51 33 71 36 19 3 46 16
58 29 12 13 40 29 62 35 21 6 55 24 74 40 20 16 41 29 48 29 7 0 22 10 35 23
13 13 42 29 64 37 25 7 47 22 55 36 7 15 28 28 51 35 22 5 41 16 44 23 3 8 22
21 43 31 22 9 48 30 60 46 12 16 28 29 36 29 8 0 21 13 29 29 9 16 26 31 38
34 33 9 153 101 213 165 17 17 37 32 43 32 7 0 12 4 12 10 0 5 48 59 108 119
59 60 119 124 134 142 90 111 108 135 108 143 0 6 11 22 25 36 79 80 105 111
105 123 0 8 7 21 17 28 9 8 25 33 35 56 10 24 27 47 37 52 10 6 24 25 31 43 8
18 24 46 37 61 13 16 26 41 30 55 3 15 19 39 35 54 19 18 28 36 28 57 0 21 8
40 23 54 30 28 47 60 47 88 0 13 12 35 26 50 15 16 28 43 31 68 3 24 15 51 30
65 27 27 43 74 43 126 0 27 7 42 30 62 25 22 30 34 30 70 0 55 17 115 34 121
16 6 36 81 36 137 0 25 11 60 28 93 24 46 28 66 32 172 4 100 9 126 27 158 40
67 45 136 41 613 l-3 450 -29 54 c-26 49 -30 68 -35 180 -5 106 -10 132 -30
170 -16 30 -27 70 -31 117 -5 56 -13 81 -34 112 -19 28 -30 59 -36 105 -6 48
-15 74 -34 97 -18 22 -26 42 -26 70 0 44 -13 75 -41 99 -11 8 -23 36 -28 63
-5 26 -20 64 -35 85 -14 21 -26 45 -26 53 0 8 -16 39 -35 69 -19 30 -35 62
-35 71 0 10 -12 26 -26 36 -17 13 -29 34 -36 66 -6 29 -17 51 -29 58 -11 5
-30 34 -43 63 -13 30 -29 56 -35 60 -6 4 -18 22 -27 41 -9 19 -24 37 -35 40
-10 4 -19 12 -19 18 0 15 -68 120 -107 165 -15 18 -56 62 -90 97 -35 36 -63
68 -63 72 0 4 -17 24 -37 43 -21 20 -72 73 -113 118 -41 45 -80 82 -87 82 -6
0 -14 9 -18 19 -3 11 -15 23 -26 26 -12 4 -52 38 -90 76 -38 38 -73 69 -77 69
-5 0 -15 11 -22 25 -7 14 -18 25 -25 25 -6 0 -28 16 -48 35 -20 19 -43 35 -51
35 -15 0 -82 50 -131 97 -16 16 -49 35 -71 41 -23 7 -44 19 -48 27 -3 8 -22
21 -42 30 -21 8 -43 24 -51 34 -7 11 -31 22 -53 26 -28 5 -47 16 -62 35 -15
20 -32 30 -63 35 -28 4 -54 16 -74 35 -22 21 -41 30 -65 30 -24 0 -42 8 -62
29 -20 19 -43 30 -72 34 -24 3 -61 17 -82 32 -26 18 -59 29 -100 34 -44 5 -67
14 -88 33 -22 21 -43 28 -116 37 -68 8 -95 16 -113 32 -19 18 -40 24 -124 30
-57 4 -110 14 -122 22 -44 28 -96 37 -284 46 -105 5 -200 14 -210 19 -47 26
-197 32 -754 32 -662 0 -649 -1 -649 70 0 31 -7 47 -30 72 -18 18 -33 47 -36
69 -4 21 -14 46 -24 57 -25 26 -40 57 -40 81 0 12 -14 35 -30 53 -18 19 -33
47 -37 70 -4 27 -15 46 -33 60 -21 15 -29 31 -33 65 -3 32 -13 53 -31 70 -16
14 -28 39 -32 63 -4 22 -17 50 -30 63 -13 13 -27 43 -33 67 -5 24 -21 53 -34
66 -14 13 -27 39 -31 63 -4 29 -15 47 -35 62 -22 16 -30 31 -34 66 -3 29 -14
54 -30 71 -13 15 -27 43 -31 63 -3 19 -15 44 -25 55 -25 28 -41 59 -41 83 0
11 -13 32 -28 48 -17 17 -31 44 -35 67 -4 26 -17 49 -37 67 -20 19 -30 37 -30
57 0 16 -12 47 -26 68 -15 21 -33 60 -40 86 -8 26 -21 51 -28 55 -18 11 -36
47 -36 71 0 11 -13 33 -30 49 -16 15 -30 37 -30 49 0 37 -21 83 -41 89 -10 4
-21 17 -24 31 -3 13 -7 35 -10 48 -3 14 -16 37 -29 53 -13 15 -26 44 -30 64
-3 20 -20 51 -36 68 -19 20 -30 41 -30 60 0 19 -10 39 -29 57 -20 19 -31 41
-36 71 -4 28 -15 52 -30 65 -13 11 -29 41 -35 68 -6 27 -20 56 -30 65 -11 10
-26 41 -35 71 -8 29 -24 59 -34 66 -11 8 -22 29 -26 48 -7 39 -23 63 -45 72
-9 3 -20 30 -28 64 -7 36 -19 63 -30 70 -9 6 -23 34 -30 62 -8 27 -22 58 -32
67 -11 10 -26 41 -34 69 -9 28 -24 56 -35 63 -11 7 -22 29 -26 53 -5 27 -17
50 -35 66 -18 17 -30 40 -34 67 -4 23 -17 53 -30 67 -13 14 -29 46 -36 72 -7
26 -21 55 -31 64 -11 10 -25 37 -31 61 -6 24 -21 52 -34 62 -13 10 -24 25 -24
32 0 37 -22 87 -43 98 -17 9 -26 27 -36 72 -8 38 -18 62 -30 69 -12 6 -22 26
-26 50 -4 21 -19 55 -35 75 -15 19 -31 51 -34 70 -4 19 -17 42 -30 53 -15 11
-26 34 -31 62 -4 25 -18 53 -32 68 -14 14 -32 50 -41 79 -8 30 -23 58 -33 63
-10 6 -20 27 -24 51 -4 23 -17 52 -29 64 -12 12 -28 41 -35 65 -7 23 -23 53
-36 66 -12 12 -28 45 -35 73 -7 29 -21 57 -32 65 -10 8 -26 38 -33 67 -8 30
-21 59 -30 65 -8 6 -24 38 -35 70 -11 32 -26 62 -34 66 -7 4 -19 28 -26 53 -8
27 -23 53 -36 62 -16 10 -26 31 -34 69 -7 33 -18 58 -29 64 -10 5 -25 35 -35
69 -9 34 -25 65 -34 70 -10 5 -24 32 -31 60 -7 28 -21 57 -30 64 -10 6 -23 34
-31 60 -7 28 -22 55 -35 63 -14 9 -26 33 -34 69 -7 31 -20 60 -31 68 -10 7
-26 38 -35 70 -9 31 -22 60 -29 64 -7 5 -21 31 -31 58 -10 28 -26 57 -36 66
-10 9 -23 37 -30 63 -8 31 -21 53 -39 66 -16 11 -31 34 -35 50 -4 16 -20 42
-36 57 -16 16 -29 34 -29 41 0 7 -13 21 -30 30 -16 9 -35 27 -41 39 -7 12 -28
28 -48 34 -20 7 -51 25 -69 40 -18 16 -39 29 -46 29 -7 0 -24 11 -37 23 -28
28 -79 47 -122 47 -18 0 -41 9 -53 21 -13 12 -42 25 -66 30 -57 11 -333 9
-382 -2z m301 -3744 c18 -17 37 -25 62 -25 30 -1 43 -8 81 -51 25 -28 60 -66
78 -84 22 -24 32 -44 32 -66 0 -21 10 -43 30 -66 19 -21 30 -45 30 -64 0 -20
9 -39 29 -57 18 -17 31 -41 34 -67 5 -28 16 -48 37 -65 21 -17 30 -34 30 -53
0 -33 16 -67 40 -84 10 -7 20 -30 24 -51 3 -21 19 -56 36 -77 18 -22 30 -50
30 -67 0 -19 10 -38 29 -56 18 -17 31 -41 34 -67 5 -28 16 -48 37 -65 21 -17
30 -34 30 -53 0 -33 24 -82 43 -90 8 -3 18 -26 21 -52 5 -31 17 -55 37 -76 19
-19 29 -40 29 -59 0 -28 29 -70 49 -70 5 0 11 -22 15 -50 5 -40 13 -54 36 -72
21 -15 30 -30 30 -50 0 -34 23 -83 43 -91 8 -3 18 -26 21 -52 5 -31 17 -55 37
-76 19 -20 29 -40 29 -60 0 -21 9 -40 29 -58 18 -17 31 -42 36 -69 4 -26 16
-49 30 -60 13 -11 27 -32 30 -48 12 -52 27 -85 45 -94 11 -6 20 -27 25 -55 4
-31 15 -54 31 -67 13 -12 24 -26 24 -32 0 -37 24 -88 45 -98 17 -8 25 -22 30
-55 4 -28 16 -55 31 -70 14 -14 29 -46 35 -74 6 -28 19 -55 30 -63 11 -7 25
-37 33 -65 8 -31 22 -58 35 -67 11 -8 21 -21 21 -27 0 -37 24 -89 45 -99 17
-8 25 -22 30 -55 4 -29 15 -54 31 -68 14 -13 28 -42 34 -72 7 -31 20 -58 36
-72 13 -11 24 -29 24 -39 0 -34 21 -81 40 -87 11 -4 20 -20 24 -43 11 -62 17
-73 41 -82 17 -7 24 -19 30 -56 4 -28 16 -56 30 -70 12 -12 28 -45 35 -72 6
-28 22 -58 34 -69 14 -12 26 -37 30 -61 4 -26 15 -48 31 -60 17 -14 28 -36 34
-68 6 -33 17 -54 34 -66 17 -12 28 -32 32 -59 4 -22 17 -52 30 -67 13 -15 28
-48 35 -72 6 -25 20 -54 31 -66 10 -11 26 -43 34 -72 10 -31 22 -53 34 -57 12
-3 22 -23 30 -59 8 -38 19 -59 36 -70 17 -11 26 -29 30 -60 4 -27 16 -53 30
-66 13 -12 29 -44 35 -71 7 -27 20 -55 30 -62 10 -7 24 -34 31 -61 7 -29 20
-53 35 -62 15 -10 26 -32 33 -66 7 -33 20 -57 36 -69 16 -13 26 -34 31 -64 3
-26 16 -54 29 -68 13 -13 29 -44 36 -70 6 -26 20 -53 29 -60 10 -7 23 -33 30
-57 7 -26 24 -57 41 -72 20 -18 29 -37 29 -57 0 -19 11 -43 30 -64 17 -20 32
-51 36 -75 4 -23 16 -52 29 -64 12 -13 28 -45 35 -71 7 -26 22 -54 32 -61 11
-8 24 -34 29 -58 6 -26 20 -51 35 -64 18 -14 29 -37 35 -69 6 -31 17 -54 33
-66 16 -12 27 -34 31 -62 4 -23 18 -53 30 -67 13 -14 28 -45 34 -69 6 -26 20
-53 35 -65 16 -14 27 -36 31 -63 5 -32 15 -48 36 -64 23 -16 29 -28 29 -58 0
-28 7 -46 29 -68 17 -18 32 -47 35 -70 4 -22 18 -51 30 -66 13 -15 29 -47 34
-70 6 -24 22 -52 35 -64 14 -11 27 -38 31 -59 5 -24 19 -50 37 -66 21 -20 29
-36 29 -62 0 -25 8 -44 29 -65 17 -18 32 -46 36 -69 3 -22 17 -50 30 -62 13
-12 27 -40 30 -63 5 -25 18 -50 35 -66 17 -16 30 -42 35 -66 4 -25 17 -50 36
-67 21 -20 29 -36 29 -61 0 -23 10 -47 29 -71 16 -20 33 -51 36 -69 4 -18 18
-43 30 -57 13 -14 28 -45 34 -70 6 -28 19 -51 35 -62 16 -12 27 -32 31 -61 5
-28 17 -51 36 -69 21 -20 29 -36 29 -61 0 -23 10 -47 30 -72 17 -21 30 -48 30
-61 0 -13 13 -38 29 -56 16 -19 33 -51 37 -73 4 -25 18 -49 36 -64 20 -18 28
-35 28 -59 0 -24 9 -42 35 -68 25 -25 35 -44 35 -67 0 -20 12 -47 30 -71 17
-22 30 -50 30 -62 0 -13 13 -38 29 -57 36 -40 48 -81 31 -102 -11 -13 -347
-15 -2814 -15 -3029 0 -2860 -3 -2823 51 10 13 17 30 17 39 0 9 16 40 35 70
19 30 35 62 35 71 0 9 14 33 30 54 17 21 30 46 30 57 0 24 15 53 41 79 10 10
22 37 25 59 4 22 20 57 35 77 16 20 29 43 29 52 0 9 16 41 35 71 19 30 35 61
35 70 0 8 14 33 30 54 17 22 30 49 30 61 0 11 16 45 35 75 19 30 35 64 35 76
0 12 14 38 30 59 17 21 30 45 30 54 0 9 16 41 35 71 19 30 35 61 35 70 0 8 14
33 30 54 17 22 30 48 30 58 0 23 16 55 40 83 10 11 21 37 24 57 4 21 18 51 32
68 14 16 30 45 35 63 5 19 20 47 33 62 13 15 27 41 30 57 3 16 19 48 35 71 16
23 32 59 36 80 3 21 15 46 26 55 11 9 27 42 36 72 9 30 24 61 34 68 10 7 23
30 29 52 6 21 21 52 33 67 12 15 29 46 36 68 8 22 24 52 36 67 12 14 25 44 28
65 4 22 17 51 30 65 13 14 30 47 37 74 8 27 22 55 32 62 9 7 22 30 28 52 6 21
21 52 34 67 13 15 26 42 30 58 4 17 19 47 33 67 13 20 29 56 35 80 5 24 20 54
32 68 13 14 29 42 36 63 6 21 23 49 36 62 13 13 24 33 24 43 0 11 12 37 26 58
15 21 30 49 33 61 15 53 252 293 312 315 12 5 27 15 33 23 6 7 36 21 67 30 31
8 66 25 78 37 32 29 156 37 637 37 365 1 392 2 407 19 16 17 16 20 -2 39 -10
11 -24 44 -30 74 -7 29 -22 65 -35 79 -13 14 -27 42 -30 63 -4 21 -18 47 -31
59 -14 12 -28 37 -31 57 -9 48 -20 68 -43 76 -13 4 -21 19 -26 53 -4 28 -16
57 -30 72 -13 14 -29 45 -35 70 -6 25 -22 56 -35 70 -12 14 -26 42 -29 63 -4
22 -18 47 -32 60 -15 13 -27 37 -31 61 -4 25 -16 49 -34 66 -16 14 -30 41 -34
63 -4 21 -18 51 -30 65 -13 15 -28 48 -35 72 -6 25 -20 54 -31 66 -10 11 -25
42 -33 68 -8 27 -24 55 -35 63 -13 8 -24 30 -27 55 -5 26 -17 49 -35 65 -18
16 -30 39 -34 67 -4 22 -17 52 -30 66 -12 14 -28 47 -35 73 -7 26 -21 53 -30
60 -9 7 -23 35 -30 64 -9 35 -21 55 -36 64 -13 7 -29 28 -35 48 -21 65 -32 71
-128 71 -96 0 -209 -16 -228 -31 -7 -6 -81 -15 -165 -21 -132 -8 -159 -13
-194 -33 -26 -15 -69 -28 -118 -34 -62 -7 -82 -14 -100 -34 -18 -19 -37 -26
-87 -32 -52 -6 -69 -12 -89 -34 -17 -18 -41 -30 -69 -35 -30 -4 -53 -16 -71
-36 -16 -17 -37 -30 -47 -30 -11 0 -35 -12 -54 -26 -19 -14 -49 -32 -66 -39
-18 -8 -33 -20 -33 -28 0 -8 -19 -22 -42 -32 -39 -15 -61 -30 -143 -99 -45
-38 -265 -254 -265 -260 0 -4 -27 -34 -60 -68 -36 -37 -65 -76 -71 -99 -7 -20
-25 -47 -40 -58 -16 -12 -29 -28 -29 -36 0 -8 -13 -30 -30 -48 -16 -19 -30
-46 -30 -60 0 -16 -13 -38 -35 -58 -26 -25 -35 -42 -35 -67 0 -24 -8 -41 -29
-60 -28 -26 -32 -35 -45 -94 -4 -16 -12 -28 -20 -28 -16 0 -33 -33 -40 -80 -4
-19 -17 -45 -30 -57 -14 -14 -25 -39 -29 -63 -3 -28 -15 -49 -36 -69 -23 -22
-31 -38 -31 -64 0 -28 -6 -40 -29 -57 -23 -16 -31 -31 -37 -66 -5 -33 -15 -54
-35 -72 -21 -18 -29 -35 -29 -58 0 -22 -9 -43 -29 -64 -17 -19 -31 -47 -34
-71 -3 -27 -15 -49 -36 -68 -23 -22 -31 -38 -31 -64 0 -28 -6 -40 -29 -57 -23
-16 -31 -31 -37 -66 -4 -30 -15 -54 -31 -67 -14 -12 -26 -37 -30 -60 -3 -22
-18 -52 -33 -69 -16 -18 -30 -46 -33 -69 -3 -27 -15 -49 -36 -68 -23 -21 -31
-38 -31 -63 0 -37 -6 -48 -35 -64 -13 -7 -24 -30 -32 -64 -7 -31 -19 -58 -31
-66 -13 -9 -25 -35 -32 -69 -7 -32 -17 -55 -24 -55 -15 0 -32 -33 -40 -78 -3
-19 -19 -46 -36 -62 -21 -20 -30 -37 -30 -60 0 -22 -9 -39 -29 -58 -19 -17
-32 -42 -36 -67 -4 -22 -18 -51 -31 -65 -13 -14 -28 -47 -33 -73 -5 -31 -17
-54 -33 -67 -17 -13 -27 -33 -31 -60 -3 -28 -15 -49 -36 -69 -22 -21 -31 -38
-31 -61 0 -22 -9 -40 -28 -59 -18 -16 -32 -42 -36 -66 -4 -22 -18 -51 -32 -65
-13 -15 -28 -47 -33 -73 -6 -32 -17 -54 -35 -68 -19 -15 -26 -30 -26 -54 0
-26 -9 -43 -35 -69 -25 -25 -35 -44 -35 -66 0 -20 -9 -40 -26 -57 -15 -15 -33
-49 -40 -76 -7 -27 -22 -56 -33 -63 -12 -9 -22 -31 -27 -60 -3 -25 -13 -51
-21 -57 -38 -32 -43 -41 -43 -73 0 -32 -8 -44 -54 -82 -9 -7 -16 -28 -16 -47
0 -25 -8 -44 -30 -66 -19 -20 -31 -46 -36 -75 -4 -29 -13 -48 -29 -58 -17 -11
-26 -29 -31 -62 -5 -33 -15 -54 -35 -72 -21 -18 -29 -34 -29 -59 0 -26 -8 -42
-34 -66 -23 -22 -35 -44 -39 -70 -4 -23 -16 -48 -31 -62 -16 -14 -27 -39 -31
-68 -5 -32 -14 -51 -30 -61 -15 -10 -25 -30 -30 -58 -4 -24 -12 -49 -17 -55
-13 -17 -1491 -19 -1533 -3 -25 10 -26 12 -13 33 8 12 20 42 27 67 7 24 22 51
32 58 10 7 23 32 30 55 6 23 22 54 35 70 13 16 24 36 24 46 0 9 15 40 34 69
18 29 36 70 40 90 3 21 16 48 30 61 13 12 27 38 30 56 4 18 20 50 36 70 17 21
30 46 30 55 0 9 11 34 26 55 14 21 32 58 41 83 8 25 21 52 29 59 20 21 30 43
38 84 3 20 15 44 26 54 10 9 26 39 35 65 9 26 24 55 35 65 10 9 22 30 25 45 3
15 19 45 35 66 16 22 30 48 30 60 0 11 13 40 29 65 16 24 34 64 41 89 6 25 22
56 34 70 12 14 28 43 35 65 7 22 21 49 31 60 10 11 23 38 30 60 7 22 21 49 31
60 9 11 25 43 34 70 10 28 25 59 35 70 10 11 24 40 30 65 6 25 22 56 35 70 12
14 28 43 35 65 7 22 20 49 30 60 10 11 24 39 31 62 6 23 23 52 35 64 13 13 24
30 24 40 0 24 26 84 44 98 8 7 20 37 27 67 8 36 20 59 34 68 13 8 26 27 29 43
4 15 17 44 30 63 12 19 28 50 34 69 7 19 23 48 36 65 12 17 26 48 30 68 4 21
17 50 30 65 13 16 30 48 37 73 7 25 23 57 35 72 12 15 28 44 34 65 7 21 20 47
30 58 10 11 23 38 30 60 7 22 20 49 30 60 10 11 26 45 35 75 10 30 26 60 35
67 10 7 23 34 30 60 8 26 24 58 36 69 13 12 26 38 29 57 4 20 15 43 26 53 10
9 26 39 35 68 9 28 27 63 40 79 12 15 26 47 30 72 4 30 14 52 29 63 13 10 29
38 36 63 7 24 23 55 35 69 12 14 26 39 30 55 3 17 16 41 29 55 12 14 27 45 34
70 7 25 24 57 37 72 12 16 26 49 30 74 4 31 14 50 29 60 12 8 28 33 35 57 7
23 23 54 35 69 13 15 27 42 30 60 4 18 18 46 30 63 12 16 28 48 35 70 7 22 21
49 31 60 10 11 24 44 32 73 7 28 22 61 34 71 12 11 27 37 34 58 6 21 22 50 35
65 12 15 26 42 29 60 4 18 18 45 30 60 13 15 28 50 35 78 7 27 20 56 31 63 10
8 24 37 32 65 7 29 23 61 35 72 12 11 26 38 32 60 6 22 20 48 31 59 11 10 27
40 34 65 8 26 23 59 35 73 11 14 25 44 31 67 6 22 21 51 35 64 13 13 27 40 30
62 4 22 17 51 30 65 13 14 28 43 34 64 5 21 19 46 30 56 11 10 27 41 35 69 8
27 24 59 34 70 11 12 25 43 31 70 6 28 19 56 30 63 11 8 26 37 35 65 8 28 24
60 35 70 10 10 24 35 30 56 5 22 19 47 30 57 11 10 28 43 36 72 9 30 22 57 29
59 16 6 35 56 35 91 0 13 9 31 21 41 26 21 49 65 49 92 0 11 11 30 25 41 13
12 27 36 30 53 4 17 20 50 36 73 16 23 29 49 29 58 0 21 18 55 40 77 10 9 23
41 29 69 7 31 20 58 31 66 11 8 24 31 30 52 5 21 24 55 40 76 17 21 30 48 30
60 0 12 13 39 30 61 16 21 30 45 30 53 0 28 24 81 36 81 14 0 34 52 34 86 0
14 13 35 29 50 18 16 31 39 35 63 3 22 18 51 36 69 16 18 30 40 30 50 0 11 13
39 30 63 16 24 30 52 30 61 0 26 23 71 42 86 10 7 21 31 24 54 4 23 19 55 34
72 15 17 31 45 34 63 4 18 21 49 37 69 16 20 29 42 29 49 0 22 121 145 149
152 14 3 51 19 81 35 49 27 61 29 119 24 50 -4 69 -11 88 -31z m5313 -5224
c156 -7 167 -9 204 -34 26 -19 52 -27 80 -27 55 0 100 -14 124 -38 10 -10 40
-22 65 -26 28 -4 60 -19 83 -37 20 -16 46 -29 58 -29 11 0 37 -13 56 -30 19
-16 47 -32 61 -35 15 -4 43 -21 62 -38 67 -60 92 -79 126 -96 28 -13 116 -88
171 -146 47 -50 67 -73 83 -95 10 -14 37 -52 62 -85 25 -33 54 -75 66 -93 12
-18 29 -37 39 -42 11 -6 21 -27 25 -51 5 -26 17 -50 35 -65 18 -17 30 -40 34
-67 4 -23 17 -53 30 -67 14 -15 28 -49 35 -85 6 -33 21 -73 33 -90 17 -22 23
-50 29 -122 5 -76 12 -100 35 -140 l29 -48 0 -271 0 -270 -27 -41 c-23 -35
-28 -58 -37 -152 -8 -97 -12 -114 -32 -129 -16 -13 -24 -35 -30 -76 -5 -37
-15 -66 -29 -81 -11 -12 -25 -38 -31 -58 -5 -20 -20 -49 -33 -64 -13 -16 -29
-47 -35 -69 -7 -27 -19 -44 -35 -52 -17 -8 -29 -25 -36 -54 -7 -23 -22 -52
-33 -64 -12 -12 -29 -32 -38 -44 -13 -19 -21 -22 -50 -16 -34 6 -37 10 -48 60
-9 39 -18 56 -35 64 -18 8 -25 22 -31 57 -4 29 -16 57 -30 71 -12 12 -28 45
-35 73 -7 28 -20 57 -30 64 -10 7 -23 33 -30 57 -7 25 -23 55 -36 66 -12 12
-26 39 -30 60 -4 23 -19 50 -34 64 -18 17 -30 41 -35 70 -4 25 -17 56 -30 70
-12 14 -28 47 -35 73 -7 26 -21 54 -31 60 -10 7 -23 35 -30 61 -8 33 -19 51
-35 58 -17 8 -25 22 -30 56 -4 29 -17 55 -34 74 -18 18 -30 45 -34 73 -5 28
-15 51 -29 62 -12 10 -28 41 -35 68 -7 28 -21 56 -30 63 -9 7 -24 36 -32 65
-11 35 -23 55 -38 62 -15 7 -23 22 -28 54 -4 28 -17 54 -34 73 -16 17 -30 45
-34 70 -4 22 -18 54 -31 70 -14 16 -29 46 -35 67 -5 21 -21 50 -34 64 -13 14
-27 42 -30 62 -5 23 -19 47 -37 62 -22 19 -29 33 -29 59 0 24 -8 43 -25 60
-14 14 -30 46 -37 72 -6 26 -21 59 -33 74 -12 14 -27 47 -34 72 -6 25 -19 50
-30 55 -10 6 -23 30 -29 54 -7 26 -23 54 -42 70 -23 21 -30 36 -30 63 0 26 -8
46 -29 69 -15 18 -32 50 -36 71 -3 21 -17 51 -30 66 -14 16 -27 44 -31 63 -3
20 -17 44 -30 54 -13 10 -24 24 -24 30 0 31 70 35 350 22z"/>
<path d="M24462 10382 c-15 -15 -45 -33 -67 -41 -22 -8 -48 -24 -58 -37 -10
-13 -25 -24 -33 -24 -8 0 -27 -12 -41 -26 -14 -14 -47 -32 -72 -40 -30 -9 -49
-21 -56 -36 -7 -17 -21 -24 -53 -29 -31 -4 -51 -14 -72 -37 -20 -23 -38 -32
-59 -32 -19 0 -43 -11 -64 -30 -19 -16 -44 -30 -55 -30 -32 0 -74 -19 -89 -40
-8 -12 -26 -20 -41 -20 -44 0 -90 -17 -123 -44 -21 -18 -42 -26 -68 -26 -46 0
-96 -16 -133 -43 -18 -13 -53 -22 -113 -28 -62 -6 -95 -15 -117 -30 -23 -17
-52 -23 -138 -29 -72 -6 -124 -15 -154 -29 -25 -11 -66 -23 -91 -27 -60 -9
-77 -32 -65 -94 5 -28 17 -52 33 -65 15 -12 27 -36 32 -60 3 -22 18 -52 32
-66 13 -15 29 -46 34 -70 6 -24 21 -55 33 -69 13 -14 27 -42 30 -64 4 -21 18
-48 31 -60 13 -12 27 -40 31 -61 4 -24 18 -50 35 -66 19 -17 31 -41 35 -70 4
-24 17 -52 29 -63 12 -12 30 -46 39 -77 9 -31 22 -59 30 -62 8 -3 21 -31 30
-61 9 -30 25 -61 35 -68 11 -8 23 -31 27 -52 6 -37 29 -69 53 -77 7 -3 16 -24
22 -48 5 -24 22 -56 37 -72 15 -15 35 -36 44 -46 9 -10 22 -22 27 -28 6 -5 35
-36 64 -67 29 -32 59 -58 65 -58 7 0 17 -11 24 -24 6 -14 24 -30 40 -37 16 -6
35 -20 42 -30 7 -10 32 -25 55 -34 24 -8 51 -25 62 -39 12 -15 33 -25 61 -29
25 -3 49 -14 58 -25 26 -32 56 -42 121 -42 54 0 65 -4 96 -30 l34 -30 813 0
c781 0 814 1 830 19 16 17 15 21 -19 61 -21 26 -35 53 -35 70 0 15 -13 44 -30
65 -17 21 -30 50 -30 66 0 17 -11 37 -30 56 -16 15 -30 32 -30 38 0 37 -24 87
-46 97 -19 9 -24 19 -24 50 0 31 -7 46 -31 70 -19 19 -33 46 -38 74 -5 23 -20
57 -35 74 -15 19 -26 44 -26 62 0 20 -9 39 -29 57 -18 17 -32 43 -37 67 -4 24
-18 48 -36 63 -20 18 -28 35 -28 58 0 21 -10 44 -29 65 -15 18 -31 49 -35 69
-4 20 -20 54 -36 74 -17 21 -30 46 -30 57 0 26 -19 60 -42 76 -10 7 -18 24
-18 37 0 36 -19 71 -46 86 -18 9 -24 21 -24 46 0 39 -15 72 -42 91 -10 7 -18
22 -18 33 0 29 -25 84 -49 108 -12 12 -21 30 -21 41 0 30 -21 69 -42 75 -10 4
-18 16 -18 29 0 41 -20 83 -45 94 -20 9 -25 19 -25 47 0 41 -15 74 -40 92 -10
7 -20 30 -24 51 -3 21 -19 56 -36 77 -16 21 -30 46 -30 57 0 25 -19 60 -40 75
-10 7 -20 29 -23 49 -6 36 -31 74 -50 74 -5 0 -21 -12 -35 -28z"/>
</g>
</svg>